HIERARCHY
ROOT Hips
{
	OFFSET 49.686199 -14.796116 100.574997
	CHANNELS 6 Xposition Yposition Zposition Xrotation Yrotation Zrotation
	JOINT spine
	{
		OFFSET 0.000000 -0.507026 8.817047
		CHANNELS 3 Xrotation Yrotation Zrotation
		JOINT spine1
		{
			OFFSET 0.000000 -0.000002 10.776596
			CHANNELS 3 Xrotation Yrotation Zrotation
			JOINT spine2
			{
				OFFSET 0.000000 -0.000001 10.325897
				CHANNELS 3 Xrotation Yrotation Zrotation
				JOINT Neck
				{
					OFFSET 0.000000 -1.263954 26.511002
					CHANNELS 3 Xrotation Yrotation Zrotation
					JOINT Head
					{
						OFFSET 0.000000 -0.000002 8.009659
						CHANNELS 3 Xrotation Yrotation Zrotation
						End Site
						{
							OFFSET 0.000000 6.393856 19.387894
						}
					}
				}
				JOINT RightShoulder
				{
					OFFSET -4.347950 0.605420 11.151199
					CHANNELS 3 Xrotation Yrotation Zrotation
					JOINT RightArm
					{
						OFFSET 0.000000 -0.000003 14.625793
						CHANNELS 3 Xrotation Yrotation Zrotation
						JOINT RightArmRoll
						{
							OFFSET 0.000000 -0.000001 7.383408
							CHANNELS 3 Xrotation Yrotation Zrotation
							JOINT RightForeArm
							{
								OFFSET 0.000000 -0.000004 21.505203
								CHANNELS 3 Xrotation Yrotation Zrotation
								JOINT RightForeArmRoll
								{
									OFFSET 0.000000 -0.000001 8.285324
									CHANNELS 3 Xrotation Yrotation Zrotation
									JOINT RightHand
									{
										OFFSET 0.000000 -0.000003 16.626801
										CHANNELS 3 Xrotation Yrotation Zrotation
										End Site
										{
											OFFSET 0.000000 0.000000 0.100006
										}
									}
								}
							}
						}
					}
				}
				JOINT LeftShoulder
				{
					OFFSET 4.347950 0.605420 11.151199
					CHANNELS 3 Xrotation Yrotation Zrotation
					JOINT LeftArm
					{
						OFFSET 0.000000 -0.000003 14.625793
						CHANNELS 3 Xrotation Yrotation Zrotation
						JOINT LeftArmRoll
						{
							OFFSET 0.000000 -0.000001 7.383408
							CHANNELS 3 Xrotation Yrotation Zrotation
							JOINT LeftForeArm
							{
								OFFSET 0.000000 -0.000004 21.505203
								CHANNELS 3 Xrotation Yrotation Zrotation
								JOINT LeftForeArmRoll
								{
									OFFSET 0.000000 -0.000001 8.285324
									CHANNELS 3 Xrotation Yrotation Zrotation
									JOINT LeftHand
									{
										OFFSET 0.000000 -0.000003 16.626801
										CHANNELS 3 Xrotation Yrotation Zrotation
										End Site
										{
											OFFSET 0.000000 0.000000 0.100006
										}
									}
								}
							}
						}
					}
				}
			}
		}
	}
	JOINT RightUpLeg
	{
		OFFSET -7.815102 1.202170 -1.433090
		CHANNELS 3 Xrotation Yrotation Zrotation
		JOINT RightUpLegRoll
		{
			OFFSET 0.000000 -0.000003 19.495895
			CHANNELS 3 Xrotation Yrotation Zrotation
			JOINT RightLeg
			{
				OFFSET 0.000000 0.000004 -24.142700
				CHANNELS 3 Xrotation Yrotation Zrotation
				JOINT RightLegRoll
				{
					OFFSET 0.000000 -0.000004 24.221703
					CHANNELS 3 Xrotation Yrotation Zrotation
					JOINT RightFoot
					{
						OFFSET 0.000000 -0.000004 20.160500
						CHANNELS 3 Xrotation Yrotation Zrotation
						JOINT RightToeBase
						{
							OFFSET 0.000000 -0.000003 16.853195
							CHANNELS 3 Xrotation Yrotation Zrotation
							End Site
							{
								OFFSET 0.007145 0.940779 8.161865
							}
						}
					}
				}
			}
		}
	}
	JOINT LeftUpLeg
	{
		OFFSET 7.815102 1.202170 -1.433090
		CHANNELS 3 Xrotation Yrotation Zrotation
		JOINT LeftUpLegRoll
		{
			OFFSET 0.000000 -0.000003 19.496002
			CHANNELS 3 Xrotation Yrotation Zrotation
			JOINT LeftLeg
			{
				OFFSET 0.000000 -0.000004 24.142593
				CHANNELS 3 Xrotation Yrotation Zrotation
				JOINT LeftLegRoll
				{
					OFFSET 0.000000 -0.000005 24.445602
					CHANNELS 3 Xrotation Yrotation Zrotation
					JOINT LeftFoot
					{
						OFFSET 0.000000 -0.000003 19.936600
						CHANNELS 3 Xrotation Yrotation Zrotation
						JOINT LeftToeBase
						{
							OFFSET 0.000000 -0.000003 16.853195
							CHANNELS 3 Xrotation Yrotation Zrotation
							End Site
							{
								OFFSET -0.032013 0.940780 8.161865
							}
						}
					}
				}
			}
		}
	}
}
MOTION
Frames: 7
Frame Time: 0.041667
50.378204 -13.335817 100.619995 -1.857414 0.284964 3.097371 -2.124338 -0.166153 -0.139015 -0.246240 -0.328684 -0.273846 1.398843 -0.332065 -0.269980 25.667909 -1.145784 2.510824 2.871268 6.989322 1.483665 -7.926262 -68.998537 -10.082967 -47.251740 -110.231276 -37.453762 0.000005 -0.000004 0.000000 7.489810 -17.706562 1.119536 0.000002 0.000003 -3.003610 -5.000181 -7.999015 0.000152 -9.103921 60.503236 10.869130 -33.197137 113.147193 20.624665 -0.000002 -0.000041 0.000005 2.832355 7.662681 0.504933 -0.000002 -0.000012 3.000001 -5.000232 7.999000 -0.000111 0.882521 -179.708042 -1.306072 -179.999991 0.000005 -1.051994 174.774405 -1.054601 -0.405462 -0.000004 0.000005 0.026832 68.484128 6.886231 2.187100 25.456865 -7.355619 -0.000014 -0.269182 177.919024 3.183454 -0.000005 -0.000004 -1.078070 -7.480123 1.635073 0.421727 -0.000002 0.000001 -0.140058 70.269471 -6.857757 -2.126571 25.456853 7.355617 0.000004 
50.378704 -13.322421 100.621002 -1.855350 0.285521 3.096069 -2.124289 -0.165848 -0.139213 -0.246141 -0.328312 -0.274869 1.398944 -0.331720 -0.270995 25.662665 -1.141121 2.513405 2.879247 6.995825 1.485078 -7.929129 -69.011794 -10.087065 -47.277722 -110.233516 -37.426541 0.000003 -0.000005 -0.000000 7.464546 -17.669385 1.110208 -0.000001 0.000003 -3.003609 -5.000183 -7.999014 0.000152 -9.101207 60.506044 10.866166 -33.141915 113.123902 20.560218 -0.000002 -0.000041 0.000007 2.860671 7.660149 0.503138 -0.000001 -0.000012 3.000001 -5.000234 7.999002 -0.000113 0.892727 -179.710036 -1.308082 -179.999991 0.000005 -1.051995 174.786918 -1.052623 -0.406046 -0.000003 0.000005 0.026833 68.484128 6.886232 2.187100 25.456868 -7.355620 -0.000014 -0.269166 177.921018 3.190444 -0.000005 -0.000004 -1.078060 -7.473532 1.627791 0.421366 -0.000002 0.000001 -0.139995 70.269150 -6.857751 -2.126592 25.456854 7.355619 0.000003 
50.374805 -13.324520 100.619995 -1.853303 0.286069 3.094797 -2.124259 -0.165528 -0.139403 -0.246096 -0.327917 -0.275899 1.398983 -0.331352 -0.272018 25.657817 -1.136380 2.515979 2.887263 7.002259 1.486477 -7.932017 -69.025557 -10.091232 -47.305337 -110.236323 -37.401429 0.000001 -0.000005 -0.000000 7.437787 -17.632758 1.100772 -0.000000 0.000003 -3.003609 -5.000180 -7.999011 0.000152 -9.097595 60.509213 10.862166 -33.088954 113.100037 20.498050 0.000001 -0.000041 0.000006 2.888776 7.657552 0.501343 -0.000002 -0.000013 2.999998 -5.000233 7.999002 -0.000114 0.903728 -179.712044 -1.310147 -179.999991 0.000005 -1.051994 174.800141 -1.050659 -0.405623 -0.000004 0.000005 0.026832 68.484121 6.886232 2.187100 25.456866 -7.355619 -0.000014 -0.269070 177.923026 3.197631 -0.000005 -0.000004 -1.078050 -7.466724 1.620310 0.420997 -0.000001 0.000001 -0.139928 70.268822 -6.857744 -2.126610 25.456848 7.355617 0.000004 
50.392303 -13.303418 100.577995 -1.851234 0.286611 3.093534 -2.124259 -0.165195 -0.139588 -0.246091 -0.327505 -0.276935 1.398994 -0.330969 -0.273045 25.653373 -1.131590 2.518541 2.895306 7.008630 1.487864 -7.934942 -69.039723 -10.095455 -47.336565 -110.239028 -37.380348 0.000000 -0.000005 0.000000 7.409977 -17.596565 1.091288 -0.000000 0.000004 -3.003609 -5.000184 -7.999013 0.000152 -9.093413 60.512922 10.857537 -33.035716 113.077292 20.435398 -0.000001 -0.000041 0.000006 2.916716 7.654922 0.499546 -0.000002 -0.000012 3.000001 -5.000234 7.999001 -0.000113 0.915288 -179.714039 -1.312271 -179.999991 0.000005 -1.051994 174.813883 -1.048696 -0.405191 -0.000003 0.000005 0.026832 68.484128 6.886231 2.187100 25.456863 -7.355620 -0.000014 -0.268915 177.925021 3.204957 -0.000005 -0.000004 -1.078050 -7.459742 1.612682 0.420621 -0.000002 0.000001 -0.139860 70.268412 -6.857772 -2.126639 25.456854 7.355619 0.000004 
50.382504 -13.301920 100.591995 -1.849171 0.287150 3.092281 -2.124260 -0.164857 -0.139768 -0.246107 -0.327083 -0.277972 1.398974 -0.330577 -0.274075 25.649025 -1.126772 2.521103 2.903366 7.014974 1.489240 -7.937888 -69.054094 -10.099716 -47.366382 -110.242634 -37.357942 0.000003 -0.000005 0.000000 7.381581 -17.560579 1.081794 -0.000000 0.000003 -3.003609 -5.000184 -7.999010 0.000153 -9.088876 60.516753 10.852504 -32.984100 113.053817 20.374543 -0.000002 -0.000041 0.000007 2.944568 7.652253 0.497750 -0.000003 -0.000012 2.999999 -5.000236 7.999002 -0.000112 0.927164 -179.716033 -1.314414 -179.999991 0.000005 -1.051994 174.827899 -1.046719 -0.405750 -0.000003 0.000005 0.026832 68.484128 6.886231 2.187100 25.456865 -7.355620 -0.000014 -0.268733 177.928026 3.212366 -0.000005 -0.000004 -1.078050 -7.452670 1.604983 0.420244 -0.000002 0.000001 -0.139790 70.267989 -6.857763 -2.126665 25.456848 7.355617 0.000004 
50.370003 -13.314320 100.622002 -1.847112 0.287688 3.091027 -2.124269 -0.164517 -0.139948 -0.246129 -0.326659 -0.279010 1.398953 -0.330183 -0.275104 25.644878 -1.121942 2.523654 2.911431 7.021306 1.490611 -7.940849 -69.068553 -10.104008 -47.398176 -110.245564 -37.337697 0.000001 -0.000005 -0.000001 7.353040 -17.524590 1.072311 0.000001 0.000004 -3.003610 -5.000186 -7.999012 0.000153 -9.084267 60.520694 10.847391 -32.931105 113.031209 20.312189 -0.000002 -0.000039 0.000007 2.972398 7.649579 0.495950 -0.000000 -0.000012 3.000000 -5.000233 7.999001 -0.000112 0.939123 -179.718041 -1.316568 -179.999991 0.000005 -1.051995 174.841996 -1.044756 -0.405314 -0.000004 0.000005 0.026832 68.484128 6.886231 2.187100 25.456868 -7.355619 -0.000014 -0.268541 177.930007 3.219790 -0.000005 -0.000005 -1.078040 -7.445568 1.597255 0.419866 -0.000002 0.000001 -0.139720 70.267552 -6.857754 -2.126691 25.456849 7.355618 0.000003 
50.384106 -13.306822 100.616989 -1.845055 0.288227 3.089766 -2.124280 -0.164179 -0.140129 -0.246141 -0.326240 -0.280046 1.398944 -0.329794 -0.276133 25.640530 -1.117133 2.526222 2.919483 7.027650 1.491993 -7.943804 -69.082924 -10.108279 -47.429773 -110.248433 -37.317131 0.000004 -0.000004 0.000000 7.324830 -17.488585 1.062902 -0.000001 0.000004 -3.003609 -5.000183 -7.999013 0.000152 -9.079830 60.524519 10.842470 -32.879066 113.007720 20.250927 -0.000001 -0.000041 0.000006 3.000267 7.646921 0.494159 -0.000004 -0.000012 3.000001 -5.000233 7.999001 -0.000112 0.950919 -179.720022 -1.318713 -179.999991 0.000005 -1.051994 174.855985 -1.042779 -0.405876 -0.000003 0.000005 0.026833 68.484128 6.886231 2.187100 25.456866 -7.355620 -0.000014 -0.268366 177.932015 3.227174 -0.000005 -0.000004 -1.078040 -7.438519 1.589576 0.419493 -0.000001 0.000001 -0.139651 70.267142 -6.857777 -2.126720 25.456851 7.355618 0.000003 
